P1
# CREATOR: GIMP PNM Filter Version 1.1
76 80
1111111111111111111111111110100100101111111111111111111111111111111111
1111111111111111111111111111110100100100100001111111111111111111111111
1111111111111111111111111111111110000000000000001010011111111111111111
1111111111111111111111111111111111111010000000000000000000001011111111
1111111111111111111111111111111111111111100000000000000000000000000101
1111111111111111111111111111111111111111111111000000000000000000000000
0000000111111111111111111111111111111111111111111100000000000000000000
0000000000101001111111111111111111111111111111111111111000000000000000
0000000000000000000100111111111111111111111111111111111111100000000000
0000000000000000000000000001001111111111111111111111111111111111010000
0000000000000000000000000000000000100111111111111111111111111111111111
0000000000000000000000000000000000000000001001111111111111111111111111
1111100000000000000000000000000000000000000000000100111111111111111111
1111111110000000000000000000000000000000000000000000000001001111111111
1111111111111111000000000000000000000000000000000000000010000000010111
1111111111111111111100000000000000000000000000000000000000000000010001
0001011111111111111111111100000000000000000000000000000000000000000000
0010000000011111111111111111111000000000000000000000000000000000000000
0000000000010101001111111111111111111000000000000000000000000000000000
0001000000000000000000000011111111111111100000000000000000000000000000
0000000100101000000100000100100101111111111111110000000000000000000000
0000000000100100100100000000100000000000111111111111100000000000000000
0000000000000101010010011001000010000100100010011111111111010000000000
0000000000000000000010001001001100000000100000010000001111111111100000
0000000000000000000000000101010101011101000000001010000100001111111111
1000000000000000000000000000000000100100010110000000000000100010000011
1111110000000000000000000000000000101110101010101100010010000100001000
0000111111110100000000000000000000000000100011110100110110000000100001
0000010000011111111000000000000000000000000000001011111110101000000000
0001000101000000001111110101000000000000000000000000000000111111111000
0000010000100000101000000111111010000000000000000000000000000011010101
0000000100000100001010000100000111111001010000000000000000000000000000
0101000000000010000001000000100000000011111101000000000000000000000000
0000000000000000000000000000010100010100000001111110110100000000000000
0000000000000000000000000000010010000001000010000001111110001010000000
0000000000000000000000000000000010000000101010010100000001111111100010
1000000000000000000000000000000000000000001000000001000010000000111111
1101000100000000000000000000000000000000000001000010010000010100000000
1111111110100101000000000000000000000000000000000000100000000101000010
0000101111111111101000100000000000000000000000000000010000001001010000
1010000000001111111111110100101000000000000000000000000000000000000000
0001000010000000101111111111111110010010000000000000000000000000000100
1001001000101000000000011111111111111111001000000000000000000000000000
0000000000000100001000000010001111111111111111110000000000000000000000
0000000000100100100001000000000001011111111111111111110000000000000000
0000000000001000000000010100010000000001011111111111111111100000000000
0000000000000000000000010010000001000000000100111111111111111110000000
0000000000000000000000000010000000100100000000000101111111111111111110
0000000000000000000000000000000000010010001000000000010011111111111111
1110000000000000000000000000000000100000000000000000000000001011111111
1111111100000000000000000000000000000000000100100101010000000001101011
1111111111111000000000000000000000000000000000000000000000000000000000
1011111111111111110000000000000000000000000000000000000010010010000000
0001010111111111111111100000000000000000000000000000000000010000000000
0000000010101111111111111111000000000000000000000000000000000010000010
0100000000000100101111111111111110000000000000000000000000000000000000
0000000000000000001010111111111111111100000000000000000000000000000000
0000001000100100000000100101111111111111111000000000000000000000000000
0000000000000100000000000001010111111111111111111000000000000000000000
0000000000000000000000000000000010101011111111111111100000000000000000
0000000000000000000001000010000000001001011111111111111111100000000000
0000000000000000000000001000001000000000001010111111111111111111000000
0000000000000000000000000000000000000000000000101010111111111111111111
0000000000000000000000000000000000000001000000000010101011111111111111
1111100000000000000000000000000000000000000000000000000010101111111111
1111111111100000000000000000000000000000000000100000000000010101011111
1111111111111111100000000000000000000000000000000000000000000000011010
1111111111111111111111000000000000000000000000000000000000000000000011
0101111111111111111111111111100000000000000000000000000000000000000000
0000101010111111111111111111111111000000000000000000000000000000000000
0000000110101011111111111111111111111111100000000000000000000000000000
0000000000010101101111111111111111111111111111010000000000000000000000
0000000000000000101010111111111111111111111111111111100000000000000000
0000000000000000000010110110111111111111111111111111111111101000000000
0000000000000000000000001110101011111111111111111111111111111111110000
0000000000000000000000000001101011011111111111111111111111111111111111
1010000000000000000000000000000101010101111111111111111111111111111111
1111111101000000000000000000000000101011011010111111111111111111111111
1111111111111110100000000000000000000010110101101111111111111111111111
1111111111111111111110101000000000000000011011011101011111111111111111
1111111111111111111111111111101010001000101111101101010111111111111111
1111111111111111111111111111111111111011101110101010110101101011111111
1111111111111111111111111111111111111111110110101011010101011110111111
1111111111111111111111111111111111111111111111111010110101110111101011
1111111111111111111111111111111111111111111111111111111111011010101100
1111111111111111111111111111111111111111111111111111111111111111111110
110111111111111111111111111111111111111111111111111111111111